<svg xmlns="http://www.w3.org/2000/svg" width="0" height="0" style="position:absolute">
  <symbol id="ic-check" viewBox="0 0 48 48"><circle cx="24" cy="24" r="22" fill="none" stroke="currentColor" stroke-width="3"/><path d="M14 25l7 7 13-15" fill="none" stroke="currentColor" stroke-width="3" stroke-linecap="round" stroke-linejoin="round"/></symbol>
  <symbol id="ic-globe" viewBox="0 0 48 48"><circle cx="24" cy="24" r="20" fill="none" stroke="currentColor" stroke-width="3"/><path d="M4 24h40M24 4c8 8 8 32 0 40M24 4c-8 8-8 32 0 40" fill="none" stroke="currentColor" stroke-width="3"/></symbol>
  <symbol id="ic-shield" viewBox="0 0 48 48"><path d="M24 4l16 6v12c0 11-7 18-16 22-9-4-16-11-16-22V10z" fill="none" stroke="currentColor" stroke-width="3" stroke-linejoin="round"/></symbol>
  <symbol id="ic-star" viewBox="0 0 48 48"><path d="M24 4l6 13 14 1-11 9 4 14-13-8-13 8 4-14-11-9 14-1z" fill="none" stroke="currentColor" stroke-width="3" stroke-linejoin="round"/></symbol>
</svg>
